# https://github.com/mikedh/trimesh
mtllib material.mtl
usemtl material_0
v -0.00664700 -0.00992600 0.30220800
v 0.00000000 -0.01144600 0.29905450
v 0.00000000 -0.01754850 0.31121700
v -0.00897350 -0.01455700 0.31121700
v 0.00664700 -0.00992600 0.30220800
v 0.00897350 -0.01455700 0.31121700
v 0.00897350 -0.01966050 0.32941200
v 0.00000000 -0.02263900 0.32928050
v -0.00897350 -0.01966050 0.32941200
v 0.00512900 -0.08154600 0.48933400
v 0.01229900 -0.08390150 0.48603250
v 0.01378850 -0.07585650 0.49356600
v 0.00406400 -0.07537600 0.49593000
v 0.01972600 -0.08154600 0.48403300
v 0.02308200 -0.07537600 0.48902300
v 0.02168150 -0.06845900 0.49392450
v 0.01484700 -0.06685050 0.49892050
v 0.00708500 -0.06845900 0.49922550
v -0.00897350 -0.00179000 0.33019900
v 0.00000000 0.00118850 0.33033000
v 0.00000000 0.00638150 0.31121700
v -0.00897350 0.00339000 0.31121700
v 0.00897350 -0.00179000 0.33019900
v 0.00897350 0.00339000 0.31121700
v 0.00664700 0.00336850 0.30220800
v 0.00000000 0.00650150 0.29905450
v -0.00664700 0.00336850 0.30220800
v 0.00000000 -0.00143500 0.29500050
v -0.00897350 -0.00247200 0.29905450
v 0.00664700 0.00336850 0.30220800
v 0.00897350 -0.00247200 0.29905450
v -0.00664700 -0.00992600 0.30220800
v 0.00664700 -0.00992600 0.30220800
v 0.01196500 -0.00558350 0.31121700
v 0.00897350 -0.01455700 0.31121700
v 0.00897350 0.00339000 0.31121700
v 0.00897350 -0.00179000 0.33019900
v 0.01196500 -0.01072500 0.32980550
v 0.00897350 -0.01966050 0.32941200
v -0.00664700 0.00336850 0.30220800
v -0.01196500 -0.00558350 0.31121700
v -0.00897350 0.00339000 0.31121700
v -0.00897350 -0.01455700 0.31121700
v -0.00897350 -0.01966050 0.32941200
v -0.01196500 -0.01072500 0.32980550
v -0.00897350 -0.00179000 0.33019900
v 0.00000000 -0.02961400 0.35103950
v -0.00897350 -0.02667400 0.35156400
v 0.00897350 -0.02667400 0.35156400
v 0.00879000 -0.03492850 0.37455050
v -0.00019350 -0.03779300 0.37391200
v -0.00908050 -0.03492850 0.37533750
v 0.01196500 -0.01785300 0.35313800
v 0.00897350 -0.02667400 0.35156400
v 0.00897350 -0.00903250 0.35471200
v 0.00908050 -0.01774050 0.38074050
v 0.01191400 -0.02633450 0.37751450
v 0.00879000 -0.03492850 0.37455050
v 0.00000000 -0.00609200 0.35523650
v 0.00897350 -0.00903250 0.35471200
v -0.00897350 -0.00903250 0.35471200
v -0.00879000 -0.01774050 0.38152750
v 0.00019350 -0.01487550 0.38216550
v 0.00908050 -0.01774050 0.38074050
v -0.01196500 -0.01785300 0.35313800
v -0.00897350 -0.00903250 0.35471200
v -0.00897350 -0.02667400 0.35156400
v -0.00908050 -0.03492850 0.37533750
v -0.01191400 -0.02633450 0.37856350
v -0.00879000 -0.01774050 0.38152750
v -0.00077400 -0.04649600 0.39531800
v -0.00940150 -0.04375600 0.39839550
v 0.00824000 -0.04375600 0.39524800
v 0.00895150 -0.05323500 0.41540000
v -0.00026550 -0.05591250 0.41633250
v -0.00879050 -0.05323500 0.42102850
v 0.01176100 -0.03553650 0.39923400
v 0.00824000 -0.04375600 0.39524800
v 0.00940150 -0.02731700 0.40426950
v 0.01102800 -0.03717300 0.42668950
v 0.01294650 -0.04520400 0.42010650
v 0.00895150 -0.05323500 0.41540000
v 0.00077400 -0.02457700 0.40734700
v 0.00940150 -0.02731700 0.40426950
v -0.00824000 -0.02731700 0.40741750
v -0.00671400 -0.03717300 0.43231800
v 0.00250300 -0.03449550 0.43138550
v 0.01102800 -0.03717300 0.42668950
v -0.01176100 -0.03553650 0.40343100
v -0.00824000 -0.02731700 0.40741750
v -0.00940150 -0.04375600 0.39839550
v -0.00879050 -0.05323500 0.42102850
v -0.01070900 -0.04520400 0.42761150
v -0.00671400 -0.03717300 0.43231800
v 0.00280900 -0.06623150 0.43803100
v -0.00610150 -0.06344400 0.44352500
v 0.01255250 -0.06344400 0.43675050
v 0.01690750 -0.07243050 0.45496500
v 0.00642900 -0.07542800 0.45634200
v -0.00315350 -0.07243050 0.46225050
v 0.01691150 -0.05508150 0.44194250
v 0.01255250 -0.06344400 0.43675050
v 0.01505200 -0.04671900 0.44939200
v 0.01959500 -0.05444400 0.46856000
v 0.02159500 -0.06343750 0.46054850
v 0.01690750 -0.07243050 0.45496500
v 0.00614150 -0.04393150 0.45488600
v 0.01505200 -0.04671900 0.44939200
v -0.00360250 -0.04671900 0.45616650
v -0.00046600 -0.05444400 0.47584500
v 0.01001250 -0.05144650 0.47446850
v 0.01959500 -0.05444400 0.46856000
v -0.00796100 -0.05508150 0.45097500
v -0.00360250 -0.04671900 0.45616650
v -0.00610150 -0.06344400 0.44352500
v -0.00315350 -0.07243050 0.46225050
v -0.00515300 -0.06343750 0.47026200
v -0.00046600 -0.05444400 0.47584500
v 0.00857450 -0.08147550 0.46719450
v -0.00176400 -0.07824150 0.47356900
v 0.01988000 -0.07824150 0.46570900
v 0.02152700 -0.08160050 0.47239000
v 0.00990400 -0.08492550 0.47391750
v -0.00072550 -0.08160050 0.48047150
v 0.02493700 -0.06853850 0.47173250
v 0.01988000 -0.07824150 0.46570900
v 0.02277950 -0.05883600 0.48037600
v 0.02450800 -0.06164950 0.48747000
v 0.02672600 -0.07162500 0.47858300
v 0.02152700 -0.08160050 0.47239000
v 0.01244100 -0.05560200 0.48675100
v 0.02277950 -0.05883600 0.48037600
v 0.00113600 -0.05883600 0.48823650
v 0.00225550 -0.06164950 0.49555100
v 0.01387850 -0.05832450 0.49402350
v 0.02450800 -0.06164950 0.48747000
v -0.00392150 -0.06853850 0.48221300
v 0.00113600 -0.05883600 0.48823650
v -0.00176400 -0.07824150 0.47356900
v -0.00072550 -0.08160050 0.48047150
v -0.00294350 -0.07162500 0.48935800
v 0.00225550 -0.06164950 0.49555100
v 0.01107450 -0.08632950 0.47984000
v 0.00116950 -0.08323100 0.48594750
v 0.02190600 -0.08323100 0.47841650
v 0.02675100 -0.07393500 0.48418800
v 0.02190600 -0.08323100 0.47841650
v 0.02468400 -0.06463900 0.49246900
v 0.02168150 -0.06845900 0.49392450
v 0.02308200 -0.07537600 0.48902300
v 0.01972600 -0.08154600 0.48403300
v 0.01477900 -0.06154000 0.49857650
v 0.02468400 -0.06463900 0.49246900
v 0.00394750 -0.06463900 0.50000000
v 0.01477900 -0.06154000 0.49857650
v 0.00394750 -0.06463900 0.50000000
v 0.02468400 -0.06463900 0.49246900
v -0.00089750 -0.07393500 0.49422900
v 0.00394750 -0.06463900 0.50000000
v 0.00116950 -0.08323100 0.48594750
v -0.00089750 -0.07393500 0.49422900
vn -0.59742092 -0.57642018 -0.55751952
vn 0.00000000 -0.68831306 -0.72541376
vn 0.00000000 -0.94028296 -0.34039383
vn -0.69968681 -0.66308750 -0.26599499
vn 0.59742092 -0.57642018 -0.55751952
vn 0.69973321 -0.66303146 -0.26601262
vn 0.70779363 -0.67659391 -0.20309817
vn 0.00000000 -0.95715214 -0.28958552
vn -0.70779363 -0.67659391 -0.20309817
vn -0.06200200 -0.77442497 0.62962030
vn 0.19599496 -0.81447904 0.54608595
vn 0.27100296 -0.60410659 0.74940818
vn -0.07669716 -0.58737823 0.80567013
vn 0.45772595 -0.74344215 0.48762765
vn 0.56441463 -0.54601415 0.61911604
vn 0.56804067 -0.32162303 0.75755424
vn 0.32158829 -0.29188937 0.90076721
vn 0.01240043 -0.34551194 0.93833242
vn -0.68780229 0.69800233 0.19930066
vn 0.00000000 0.96196044 0.27318877
vn 0.00000000 0.98612504 0.16600422
vn -0.68719366 0.72039336 0.09379914
vn 0.68780229 0.69800233 0.19930066
vn 0.68719366 0.72039336 0.09379914
vn 0.65635625 0.68555430 -0.31497900
vn 0.00000000 0.87862451 -0.47751332
vn -0.65629933 0.68559930 -0.31499968
vn 0.00000000 0.03130031 -0.99951003
vn -0.78491389 0.01550027 -0.61941096
vn 0.65629933 0.68559930 -0.31499968
vn 0.78491389 0.01550027 -0.61941096
vn -0.59742092 -0.57642018 -0.55751952
vn 0.59742092 -0.57642018 -0.55751952
vn 0.99601143 0.01980023 -0.08700100
vn 0.69968681 -0.66308750 -0.26599499
vn 0.68719366 0.72039336 0.09379914
vn 0.68780229 0.69800233 0.19930066
vn 0.99989411 0.01409992 0.00359998
vn 0.70779363 -0.67659391 -0.20309817
vn -0.65629933 0.68559930 -0.31499968
vn -0.99601143 0.01980023 -0.08700100
vn -0.68729594 0.72029574 0.09379945
vn -0.69973321 -0.66303146 -0.26601262
vn -0.70784152 -0.67653968 -0.20311191
vn -0.99989411 0.01409992 0.00359998
vn -0.68780229 0.69800233 0.19930066
vn -0.00440003 -0.94740658 -0.32000222
vn -0.71695845 -0.66106169 -0.22128718
vn 0.71067577 -0.66727725 -0.22289240
vn 0.70654083 -0.66293831 -0.24761431
vn -0.02780111 -0.93463727 -0.35451414
vn -0.74283637 -0.62683069 -0.23511151
vn 0.99995547 0.00909959 0.00249989
vn 0.71067577 -0.66727725 -0.22289240
vn 0.69660631 0.68460620 0.21460194
vn 0.71528534 0.65788652 0.23569517
vn 0.99997490 -0.00699982 -0.00109997
vn 0.70654083 -0.66293831 -0.24761431
vn 0.00130006 0.95484147 0.29711290
vn 0.69662126 0.68462089 0.21450655
vn -0.69418606 0.68668621 0.21579567
vn -0.69268365 0.67828399 0.24519421
vn 0.01670044 0.94192465 0.33540878
vn 0.71528534 0.65788652 0.23569517
vn -0.99985678 0.01619930 0.00489979
vn -0.69418606 0.68668621 0.21579567
vn -0.71690985 -0.66110909 -0.22130304
vn -0.74281890 -0.62681595 -0.23520598
vn -0.99933970 0.03340133 0.01430057
vn -0.69263162 0.67833097 0.24521120
vn -0.08299840 -0.91728232 -0.38949249
vn -0.78127425 -0.58098085 -0.22819248
vn 0.67840149 -0.67020147 -0.30100066
vn 0.64167961 -0.66707880 -0.37848797
vn -0.13429529 -0.90386830 -0.40618576
vn -0.80110195 -0.56730138 -0.19080046
vn 0.99864499 -0.03230146 -0.04080184
vn 0.67834751 -0.67024694 -0.30102108
vn 0.74849854 0.62259879 0.22829955
vn 0.77018543 0.61658833 0.16319691
vn 0.99105770 -0.02539892 -0.13099441
vn 0.64159649 -0.66709635 -0.37859793
vn 0.05490115 0.92831941 0.36770769
vn 0.74849854 0.62259879 0.22829955
vn -0.67801624 0.67631620 0.28790690
vn -0.65771619 0.67501661 0.33430823
vn 0.09579952 0.92669532 0.36339817
vn 0.77018543 0.61658833 0.16319691
vn -0.99732408 0.05690137 0.04590111
vn -0.67801624 0.67631620 0.28790690
vn -0.78127425 -0.58098085 -0.22819248
vn -0.80110195 -0.56730138 -0.19080046
vn -0.99318933 0.05369942 0.10339889
vn -0.65771619 0.67501661 0.33430823
vn -0.15310112 -0.89790660 -0.41270303
vn -0.80163745 -0.57602691 -0.15990747
vn 0.62821591 -0.64391631 -0.43671106
vn 0.62700745 -0.61820734 -0.47400563
vn -0.16309967 -0.88719822 -0.43159913
vn -0.80835494 -0.56576846 -0.16269093
vn 0.97896532 0.01329953 -0.20359279
vn 0.62821591 -0.64391631 -0.43671106
vn 0.76320151 0.63780126 0.10360021
vn 0.74542485 0.66272209 0.07170239
vn 0.96960477 0.04860024 -0.23980118
vn 0.62700745 -0.61820734 -0.47400563
vn 0.11399628 0.93176956 0.34468874
vn 0.76320151 0.63780126 0.10360021
vn -0.64172420 0.67622550 0.36181365
vn -0.63492681 0.68832907 0.35081482
vn 0.11029696 0.94077409 0.32059117
vn 0.74543019 0.66272684 0.07160290
vn -0.98842512 0.03940100 0.14650372
vn -0.64172420 0.67622550 0.36181365
vn -0.80163745 -0.57602691 -0.15990747
vn -0.80832028 -0.56581420 -0.16270408
vn -0.98793587 0.04840176 0.14710534
vn -0.63492681 0.68832907 0.35081482
vn -0.16729607 -0.88077933 -0.44298961
vn -0.81218997 -0.55749312 -0.17189788
vn 0.62452260 -0.61032208 -0.48731763
vn 0.63838951 -0.66948900 -0.37979376
vn -0.12760077 -0.93110565 -0.34170207
vn -0.77000452 -0.63310372 -0.07920047
vn 0.96680235 0.05650014 -0.24920061
vn 0.62452260 -0.61032208 -0.48731763
vn 0.74022156 0.66931950 0.06390186
vn 0.78669933 0.59599949 0.16089986
vn 0.98720637 -0.01990013 -0.15820102
vn 0.63838951 -0.66948900 -0.37979376
vn 0.10639730 0.94397606 0.31239208
vn 0.74022629 0.66932377 0.06380227
vn -0.63489165 0.69229090 0.34299549
vn -0.62053480 0.63023534 0.46662617
vn 0.14720054 0.89390330 0.42340156
vn 0.78669933 0.59599949 0.16089986
vn -0.98867735 0.05579872 0.13929681
vn -0.63489165 0.69229090 0.34299549
vn -0.81218997 -0.55749312 -0.17189788
vn -0.77000452 -0.63310372 -0.07920047
vn -0.97176408 -0.02129921 0.23499131
vn -0.62049569 0.63029562 0.46659676
vn -0.00280013 -0.99984467 0.01740078
vn -0.57289752 -0.78199661 0.24549894
vn 0.63100193 -0.77550237 -0.02080006
vn 0.95185007 -0.25288674 0.17329091
vn 0.63100193 -0.77550237 -0.02080006
vn 0.82178923 0.29809609 0.48559364
vn 0.56799764 -0.32159866 0.75759685
vn 0.56448277 -0.54598333 0.61908110
vn 0.45780500 -0.74340812 0.48760532
vn 0.26570120 0.56380256 0.78200355
vn 0.82181372 0.29800498 0.48560811
vn -0.46260803 0.32380562 0.82531432
vn 0.26570120 0.56380256 0.78200355
vn -0.46256985 0.32377890 0.82534621
vn 0.82178923 0.29809609 0.48559364
vn -0.77556940 -0.28158889 0.56497771
vn -0.46260803 0.32380562 0.82531432
vn -0.57289752 -0.78199661 0.24549894
vn -0.77556940 -0.28158889 0.56497771
vt 0.76335400 0.17452700
vt 0.76947700 0.17224800
vt 0.76188800 0.16481200
vt 0.75632000 0.17038000
vt 0.77156300 0.16638800
vt 0.76745700 0.15924300
vt 0.75616600 0.14795200
vt 0.75067900 0.15360200
vt 0.74502800 0.15908900
vt 0.65455600 0.05117100
vt 0.66088300 0.04874900
vt 0.65724900 0.04282000
vt 0.65008600 0.04767500
vt 0.66688500 0.04532600
vt 0.66453900 0.03857200
vt 0.65837500 0.03312200
vt 0.65286500 0.03588000
vt 0.64853700 0.04132700
vt 0.79335700 0.20120400
vt 0.80003700 0.19703100
vt 0.79094300 0.18293600
vt 0.78432500 0.18720600
vt 0.80659200 0.19266400
vt 0.79756000 0.17866600
vt 0.79155800 0.17313000
vt 0.78515800 0.17397100
vt 0.78175200 0.17945200
vt 0.77824300 0.17316200
vt 0.77647400 0.18091100
vt 0.78317800 0.16789600
vt 0.77819000 0.16519900
vt 0.77010800 0.17805300
vt 0.77684800 0.15817500
vt 0.78555000 0.15702600
vt 0.78123100 0.15044100
vt 0.78986900 0.16361200
vt 0.80130600 0.15067500
vt 0.79671700 0.14430700
vt 0.79212800 0.13793900
vt 0.77797500 0.18658600
vt 0.76683600 0.18618600
vt 0.77218300 0.19196800
vt 0.76149000 0.18040400
vt 0.74672500 0.18795600
vt 0.75179500 0.19394800
vt 0.75686600 0.19994100
vt 0.73717600 0.14009900
vt 0.73128100 0.14534200
vt 0.74241900 0.13420500
vt 0.72804100 0.12005400
vt 0.72286200 0.12602500
vt 0.71646200 0.13065600
vt 0.81041000 0.12784600
vt 0.80501000 0.12213000
vt 0.81581000 0.13356200
vt 0.83072100 0.11464400
vt 0.82421700 0.10989000
vt 0.81790600 0.10500900
vt 0.81188900 0.21539700
vt 0.81825600 0.21074000
vt 0.80502200 0.21928000
vt 0.81791700 0.23896800
vt 0.82484500 0.23516300
vt 0.83072100 0.22988400
vt 0.73251400 0.20325800
vt 0.73675500 0.20987900
vt 0.72827200 0.19663600
vt 0.70803500 0.20548200
vt 0.71107700 0.21294200
vt 0.71428800 0.22024600
vt 0.70921700 0.11310200
vt 0.70195400 0.11654600
vt 0.71485500 0.10755100
vt 0.70279100 0.09460400
vt 0.69649200 0.09974500
vt 0.68828800 0.10212100
vt 0.83572800 0.09268400
vt 0.82884700 0.08857000
vt 0.84338000 0.09629200
vt 0.85509000 0.07826900
vt 0.84639400 0.07554300
vt 0.83907400 0.07191400
vt 0.83725600 0.25345600
vt 0.84215300 0.24708200
vt 0.83064200 0.25779800
vt 0.84361600 0.27543400
vt 0.84996900 0.27036000
vt 0.85402100 0.26284100
vt 0.68957000 0.22182900
vt 0.69189900 0.22950100
vt 0.68791800 0.21353300
vt 0.66768600 0.22091000
vt 0.66823000 0.23000700
vt 0.66998200 0.23798700
vt 0.68493500 0.08437200
vt 0.67599600 0.08649200
vt 0.69177600 0.07911900
vt 0.68317500 0.06511400
vt 0.67581800 0.07076200
vt 0.66620500 0.07304200
vt 0.85766500 0.05778500
vt 0.84983000 0.05414700
vt 0.86715700 0.06033700
vt 0.87750600 0.04544300
vt 0.86729800 0.04269900
vt 0.85887200 0.03878600
vt 0.86383400 0.28595900
vt 0.86779100 0.27766800
vt 0.85725800 0.29154000
vt 0.86893500 0.30455900
vt 0.87600700 0.29855700
vt 0.88026200 0.28964100
vt 0.64728900 0.23756300
vt 0.64892700 0.24604500
vt 0.64710700 0.22773600
vt 0.62968700 0.23310300
vt 0.62988300 0.24367100
vt 0.63164400 0.25279200
vt 0.67041500 0.06269600
vt 0.66004300 0.06515500
vt 0.67835200 0.05660200
vt 0.67522800 0.05143400
vt 0.66706700 0.05769900
vt 0.65640400 0.06022800
vt 0.87305100 0.03357200
vt 0.86396000 0.02935000
vt 0.88406400 0.03653200
vt 0.88791600 0.03105400
vt 0.87659300 0.02801000
vt 0.86724700 0.02367000
vt 0.88364200 0.30645900
vt 0.88823300 0.29683900
vt 0.87601200 0.31293400
vt 0.88031900 0.31779500
vt 0.88816300 0.31113800
vt 0.89288300 0.30124800
vt 0.61914300 0.24750400
vt 0.62104300 0.25734500
vt 0.61893100 0.23610200
vt 0.61248200 0.23805000
vt 0.61270000 0.24977300
vt 0.61465300 0.25989100
vt 0.66411900 0.05329700
vt 0.65418200 0.05565400
vt 0.67172300 0.04745800
vt 0.87959400 0.02361700
vt 0.87088500 0.01957200
vt 0.89014600 0.02645400
vt 0.88937500 0.02295000
vt 0.88244900 0.02023200
vt 0.87581700 0.01810600
vt 0.89099300 0.31406700
vt 0.89539100 0.30485000
vt 0.88368300 0.32027100
vt 0.64983400 0.03233900
vt 0.64427500 0.04051500
vt 0.65825200 0.02886000
vt 0.60818500 0.25118700
vt 0.61000500 0.26061500
vt 0.60798300 0.24026300
vt 0.64699700 0.05065100
f 4/4/4 1/1/1 2/2/2
f 2/2/2 3/3/3 4/4/4
f 3/3/3 2/2/2 5/5/5
f 5/5/5 6/6/6 3/3/3
f 8/8/8 3/3/3 6/6/6
f 6/6/6 7/7/7 8/8/8
f 9/9/9 4/4/4 3/3/3
f 3/3/3 8/8/8 9/9/9
f 13/13/13 10/10/10 11/11/11
f 11/11/11 12/12/12 13/13/13
f 12/12/12 11/11/11 14/14/14
f 14/14/14 15/15/15 12/12/12
f 17/17/17 12/12/12 15/15/15
f 15/15/15 16/16/16 17/17/17
f 18/18/18 13/13/13 12/12/12
f 12/12/12 17/17/17 18/18/18
f 22/22/22 19/19/19 20/20/20
f 20/20/20 21/21/21 22/22/22
f 21/21/21 20/20/20 23/23/23
f 23/23/23 24/24/24 21/21/21
f 26/26/26 21/21/21 24/24/24
f 24/24/24 25/25/25 26/26/26
f 27/27/27 22/22/22 21/21/21
f 21/21/21 26/26/26 27/27/27
f 29/29/29 27/27/27 26/26/26
f 26/26/26 28/28/28 29/29/29
f 28/28/28 26/26/26 30/30/30
f 30/30/30 31/31/31 28/28/28
f 2/2/2 28/28/28 31/31/31
f 31/31/31 5/5/5 2/2/2
f 32/32/32 29/29/29 28/28/28
f 28/28/28 2/2/2 32/32/32
f 35/35/35 33/33/33 31/31/31
f 31/31/31 34/34/34 35/35/35
f 34/34/34 31/31/31 30/30/30
f 30/30/30 36/36/36 34/34/34
f 38/38/38 34/34/34 36/36/36
f 36/36/36 37/37/37 38/38/38
f 39/39/39 35/35/35 34/34/34
f 34/34/34 38/38/38 39/39/39
f 42/42/42 40/40/40 29/29/29
f 29/29/29 41/41/41 42/42/42
f 41/41/41 29/29/29 32/32/32
f 32/32/32 43/43/43 41/41/41
f 45/45/45 41/41/41 43/43/43
f 43/43/43 44/44/44 45/45/45
f 46/46/46 42/42/42 41/41/41
f 41/41/41 45/45/45 46/46/46
f 48/48/48 9/9/9 8/8/8
f 8/8/8 47/47/47 48/48/48
f 47/47/47 8/8/8 7/7/7
f 7/7/7 49/49/49 47/47/47
f 51/51/51 47/47/47 49/49/49
f 49/49/49 50/50/50 51/51/51
f 52/52/52 48/48/48 47/47/47
f 47/47/47 51/51/51 52/52/52
f 54/54/54 39/39/39 38/38/38
f 38/38/38 53/53/53 54/54/54
f 53/53/53 38/38/38 37/37/37
f 37/37/37 55/55/55 53/53/53
f 57/57/57 53/53/53 55/55/55
f 55/55/55 56/56/56 57/57/57
f 58/58/58 54/54/54 53/53/53
f 53/53/53 57/57/57 58/58/58
f 60/60/60 23/23/23 20/20/20
f 20/20/20 59/59/59 60/60/60
f 59/59/59 20/20/20 19/19/19
f 19/19/19 61/61/61 59/59/59
f 63/63/63 59/59/59 61/61/61
f 61/61/61 62/62/62 63/63/63
f 64/64/64 60/60/60 59/59/59
f 59/59/59 63/63/63 64/64/64
f 66/66/66 46/46/46 45/45/45
f 45/45/45 65/65/65 66/66/66
f 65/65/65 45/45/45 44/44/44
f 44/44/44 67/67/67 65/65/65
f 69/69/69 65/65/65 67/67/67
f 67/67/67 68/68/68 69/69/69
f 70/70/70 66/66/66 65/65/65
f 65/65/65 69/69/69 70/70/70
f 72/72/72 52/52/52 51/51/51
f 51/51/51 71/71/71 72/72/72
f 71/71/71 51/51/51 50/50/50
f 50/50/50 73/73/73 71/71/71
f 75/75/75 71/71/71 73/73/73
f 73/73/73 74/74/74 75/75/75
f 76/76/76 72/72/72 71/71/71
f 71/71/71 75/75/75 76/76/76
f 78/78/78 58/58/58 57/57/57
f 57/57/57 77/77/77 78/78/78
f 77/77/77 57/57/57 56/56/56
f 56/56/56 79/79/79 77/77/77
f 81/81/81 77/77/77 79/79/79
f 79/79/79 80/80/80 81/81/81
f 82/82/82 78/78/78 77/77/77
f 77/77/77 81/81/81 82/82/82
f 84/84/84 64/64/64 63/63/63
f 63/63/63 83/83/83 84/84/84
f 83/83/83 63/63/63 62/62/62
f 62/62/62 85/85/85 83/83/83
f 87/87/87 83/83/83 85/85/85
f 85/85/85 86/86/86 87/87/87
f 88/88/88 84/84/84 83/83/83
f 83/83/83 87/87/87 88/88/88
f 90/90/90 70/70/70 69/69/69
f 69/69/69 89/89/89 90/90/90
f 89/89/89 69/69/69 68/68/68
f 68/68/68 91/91/91 89/89/89
f 93/93/93 89/89/89 91/91/91
f 91/91/91 92/92/92 93/93/93
f 94/94/94 90/90/90 89/89/89
f 89/89/89 93/93/93 94/94/94
f 96/96/96 76/76/76 75/75/75
f 75/75/75 95/95/95 96/96/96
f 95/95/95 75/75/75 74/74/74
f 74/74/74 97/97/97 95/95/95
f 99/99/99 95/95/95 97/97/97
f 97/97/97 98/98/98 99/99/99
f 100/100/100 96/96/96 95/95/95
f 95/95/95 99/99/99 100/100/100
f 102/102/102 82/82/82 81/81/81
f 81/81/81 101/101/101 102/102/102
f 101/101/101 81/81/81 80/80/80
f 80/80/80 103/103/103 101/101/101
f 105/105/105 101/101/101 103/103/103
f 103/103/103 104/104/104 105/105/105
f 106/106/106 102/102/102 101/101/101
f 101/101/101 105/105/105 106/106/106
f 108/108/108 88/88/88 87/87/87
f 87/87/87 107/107/107 108/108/108
f 107/107/107 87/87/87 86/86/86
f 86/86/86 109/109/109 107/107/107
f 111/111/111 107/107/107 109/109/109
f 109/109/109 110/110/110 111/111/111
f 112/112/112 108/108/108 107/107/107
f 107/107/107 111/111/111 112/112/112
f 114/114/114 94/94/94 93/93/93
f 93/93/93 113/113/113 114/114/114
f 113/113/113 93/93/93 92/92/92
f 92/92/92 115/115/115 113/113/113
f 117/117/117 113/113/113 115/115/115
f 115/115/115 116/116/116 117/117/117
f 118/118/118 114/114/114 113/113/113
f 113/113/113 117/117/117 118/118/118
f 120/120/120 100/100/100 99/99/99
f 99/99/99 119/119/119 120/120/120
f 119/119/119 99/99/99 98/98/98
f 98/98/98 121/121/121 119/119/119
f 123/123/123 119/119/119 121/121/121
f 121/121/121 122/122/122 123/123/123
f 124/124/124 120/120/120 119/119/119
f 119/119/119 123/123/123 124/124/124
f 126/126/126 106/106/106 105/105/105
f 105/105/105 125/125/125 126/126/126
f 125/125/125 105/105/105 104/104/104
f 104/104/104 127/127/127 125/125/125
f 129/129/129 125/125/125 127/127/127
f 127/127/127 128/128/128 129/129/129
f 130/130/130 126/126/126 125/125/125
f 125/125/125 129/129/129 130/130/130
f 132/132/132 112/112/112 111/111/111
f 111/111/111 131/131/131 132/132/132
f 131/131/131 111/111/111 110/110/110
f 110/110/110 133/133/133 131/131/131
f 135/135/135 131/131/131 133/133/133
f 133/133/133 134/134/134 135/135/135
f 136/136/136 132/132/132 131/131/131
f 131/131/131 135/135/135 136/136/136
f 138/138/138 118/118/118 117/117/117
f 117/117/117 137/137/137 138/138/138
f 137/137/137 117/117/117 116/116/116
f 116/116/116 139/139/139 137/137/137
f 141/141/141 137/137/137 139/139/139
f 139/139/139 140/140/140 141/141/141
f 142/142/142 138/138/138 137/137/137
f 137/137/137 141/141/141 142/142/142
f 144/144/144 124/124/124 123/123/123
f 123/123/123 143/143/143 144/144/144
f 143/143/143 123/123/123 122/122/122
f 122/122/122 145/145/145 143/143/143
f 11/11/11 143/143/143 145/145/145
f 145/145/145 14/14/14 11/11/11
f 10/10/10 144/144/144 143/143/143
f 143/143/143 11/11/11 10/10/10
f 147/147/147 130/130/130 129/129/129
f 129/129/129 146/146/146 147/147/147
f 146/146/146 129/129/129 128/128/128
f 128/128/128 148/148/148 146/146/146
f 150/150/150 146/146/146 148/148/148
f 148/148/148 149/149/149 150/150/150
f 151/151/151 147/147/147 146/146/146
f 146/146/146 150/150/150 151/151/151
f 153/153/153 136/136/136 135/135/135
f 135/135/135 152/152/152 153/153/153
f 152/152/152 135/135/135 134/134/134
f 134/134/134 154/154/154 152/152/152
f 17/17/17 155/155/155 156/156/156
f 156/156/156 18/18/18 17/17/17
f 16/16/16 157/157/157 155/155/155
f 155/155/155 17/17/17 16/16/16
f 159/159/159 142/142/142 141/141/141
f 141/141/141 158/158/158 159/159/159
f 158/158/158 141/141/141 140/140/140
f 140/140/140 160/160/160 158/158/158
f 13/13/13 161/161/161 144/144/144
f 144/144/144 10/10/10 13/13/13
f 18/18/18 156/156/156 161/161/161
f 161/161/161 13/13/13 18/18/18